<?xml version="1.0"?>
<svg width="34" height="17" xmlns="http://www.w3.org/2000/svg" xmlns:svg="http://www.w3.org/2000/svg">
 <g class="layer">
  <title>Layer 1</title>
  <path d="m29.72,8.05l0.12,-2.62l-2.29,1.43l-0.71,-1.18l2.43,-1.2l-2.43,-1.19l0.71,-1.2l2.29,1.43l-0.12,-2.62l1.4,0l-0.12,2.62l2.29,-1.43l0.71,1.2l-2.43,1.19l2.43,1.2l-0.71,1.18l-2.29,-1.43l0.12,2.62l-1.4,0zm-5.17,-4.25l0,1.51l-5.76,0l0,-1.51l5.76,0zm-4.19,9.62l0,-10.74c0,-0.59 0.14,-1.09 0.42,-1.48c0.29,-0.41 0.66,-0.7 1.11,-0.9c0.47,-0.2 0.96,-0.3 1.49,-0.3c0.41,0 0.76,0.03 1.04,0.1c0.29,0.06 0.5,0.11 0.63,0.16l-0.47,1.51a5.24,5.24 0 0 0 -0.36,-0.09a2.27,2.27 0 0 0 -0.53,-0.05c-0.48,0 -0.83,0.11 -1.04,0.34c-0.21,0.22 -0.32,0.55 -0.32,0.98l0,10.47l-1.97,0z" fill="#3B3B3B" id="svg_1"/>
  <path d="m19.18,3.8l0,1.51l-5.76,0l0,-1.51l5.76,0zm-4.19,9.62l0,-10.74c0,-0.59 0.14,-1.09 0.42,-1.48c0.29,-0.41 0.66,-0.7 1.11,-0.9c0.47,-0.2 0.96,-0.3 1.49,-0.3c0.41,0 0.76,0.03 1.04,0.1c0.29,0.06 0.5,0.11 0.63,0.16l-0.47,1.51a5.23,5.23 0 0 0 -0.36,-0.09a2.27,2.27 0 0 0 -0.53,-0.05c-0.48,0 -0.82,0.11 -1.04,0.34c-0.21,0.22 -0.32,0.55 -0.32,0.98l0,10.47l-1.97,0zm-5.8,0c-0.97,0 -1.81,-0.2 -2.51,-0.6a4.11,4.11 0 0 1 -1.64,-1.71c-0.38,-0.74 -0.57,-1.6 -0.57,-2.58c0,-0.98 0.19,-1.84 0.56,-2.58a4.23,4.23 0 0 1 1.58,-1.74c0.69,-0.42 1.49,-0.63 2.41,-0.63c0.56,0 1.1,0.09 1.63,0.26c0.52,0.18 0.99,0.46 1.41,0.84c0.42,0.38 0.75,0.87 0.99,1.48c0.25,0.61 0.37,1.34 0.37,2.2l0,0.66l-7.86,0l0,-1.39l6.87,0l-0.89,0.47c0,-0.59 -0.1,-1.11 -0.28,-1.55a2.28,2.28 0 0 0 -0.85,-1.05c-0.37,-0.26 -0.84,-0.39 -1.39,-0.39c-0.56,0 -1.03,0.13 -1.42,0.39a2.52,2.52 0 0 0 -0.9,1.01c-0.2,0.42 -0.31,0.88 -0.31,1.38l0,0.95c0,0.65 0.12,1.2 0.36,1.66c0.23,0.45 0.56,0.8 0.98,1.04c0.42,0.24 0.91,0.36 1.47,0.36c0.37,0 0.7,-0.05 0.99,-0.16c0.3,-0.1 0.56,-0.25 0.78,-0.46c0.22,-0.2 0.39,-0.46 0.5,-0.76l1.82,0.34c-0.15,0.51 -0.41,0.96 -0.78,1.34a3.79,3.79 0 0 1 -1.4,0.91c-0.57,0.21 -1.2,0.31 -1.92,0.31zm-7.66,-9.7l1.81,0l0,10.3c0.01,0.64 -0.1,1.19 -0.33,1.63c-0.23,0.44 -0.57,0.78 -1.01,1c-0.44,0.23 -0.99,0.35 -1.63,0.35l-0.37,0l0,-1.62l0.29,0c0.44,0 0.75,-0.11 0.95,-0.35c0.19,-0.24 0.28,-0.58 0.29,-1.02l0,-10.29zm0.9,-1.48c-0.32,0 -0.59,-0.11 -0.82,-0.33a1.06,1.06 0 0 1 -0.33,-0.79c0,-0.31 0.11,-0.57 0.33,-0.79c0.23,-0.22 0.5,-0.33 0.82,-0.33c0.31,0 0.58,0.11 0.8,0.33c0.23,0.22 0.35,0.48 0.35,0.79c0,0.31 -0.12,0.57 -0.35,0.79a1.11,1.11 0 0 1 -0.8,0.33z" fill="#3B3B3B" id="svg_2"/>
 </g>
</svg>