<svg aria-hidden="true" style="position: absolute; width: 0; height: 0; overflow: hidden;" version="1.1" xmlns="http://www.w3.org/2000/svg" xmlns:xlink="http://www.w3.org/1999/xlink">
<defs>
<symbol id="icon-arrow-narrow-right" viewBox="0 0 32 32">
<path fill="none" stroke="currentColor" style="stroke: var(--color1, currentColor)" stroke-linejoin="round" stroke-linecap="round" stroke-miterlimit="4" stroke-width="2" d="M5.333 16h21.334M18.667 8l8 8-8 8"></path>
</symbol>
<symbol id="icon-arrow-up" viewBox="0 0 32 32">
<path fill="none" stroke="currentColor" style="stroke: var(--color1, currentColor)" stroke-linejoin="miter" stroke-linecap="butt" stroke-miterlimit="4" stroke-width="3.2" d="M24 12l-8 8-8-8"></path>
</symbol>
<symbol id="icon-arrow-down" viewBox="0 0 32 32">
<path fill="none" stroke="currentColor" style="stroke: var(--color1, currentColor)" stroke-linejoin="miter" stroke-linecap="butt" stroke-miterlimit="4" stroke-width="3.2" d="M24 12l-8 8-8-8"></path>
</symbol>
<symbol id="icon-arrow-narrow-left" viewBox="0 0 32 32">
<path fill="none" stroke="currentColor" style="stroke: var(--color1, currentColor)" stroke-linejoin="round" stroke-linecap="round" stroke-miterlimit="4" stroke-width="2" d="M26.666 16H5.334M13.334 24l-8-8 8-8"></path>
</symbol>
<symbol id="icon-benefit-user" viewBox="0 0 32 32">
<path fill="none" stroke="currentColor" style="stroke: var(--color1, currentColor)" stroke-linejoin="round" stroke-linecap="round" stroke-miterlimit="4" stroke-width="2.6667" d="M26.667 28c0-1.861 0-2.791-0.229-3.548-0.529-1.708-1.848-3.026-3.518-3.546l-0.038-0.010c-0.757-0.229-1.687-0.229-3.548-0.229h-6.667c-1.861 0-2.791 0-3.548 0.229-1.708 0.529-3.027 1.848-3.546 3.518l-0.010 0.038c-0.229 0.757-0.229 1.687-0.229 3.548M16 16c3.314 0 6-2.686 6-6s-2.686-6-6-6v0c-3.314 0-6 2.686-6 6s2.686 6 6 6v0z"></path>
</symbol>
<symbol id="icon-benefit-brush" viewBox="0 0 32 32">
<path fill="none" stroke="currentColor" style="stroke: var(--color1, currentColor)" stroke-linejoin="round" stroke-linecap="round" stroke-miterlimit="4" stroke-width="2.6667" d="M17.037 20l-5.037-5.037M2.667 29.333c2.667 0 6.144 0.456 7.967-1.367 0.845-0.845 1.367-2.011 1.367-3.3 0-2.577-2.089-4.667-4.667-4.667-1.289 0-2.455 0.522-3.3 1.367v0c-1.823 1.823 0 5.3-1.367 7.967z"></path>
<path fill="none" stroke="currentColor" style="stroke: var(--color1, currentColor)" stroke-linejoin="round" stroke-linecap="round" stroke-miterlimit="4" stroke-width="2.6667" d="M10.667 21.333c-0.655-0.655-0.983-0.983-1.168-1.325-0.202-0.366-0.32-0.803-0.32-1.267 0-0.5 0.138-0.969 0.378-1.369l-0.007 0.012c0.197-0.335 0.537-0.651 1.217-1.28l13.157-12.183c0.526-0.502 1.24-0.811 2.027-0.811 1.623 0 2.939 1.316 2.939 2.939 0 0.786-0.309 1.5-0.812 2.028l0.001-0.001-12.183 13.157c-0.631 0.68-0.945 1.019-1.28 1.217-0.388 0.233-0.856 0.371-1.357 0.371-0.464 0-0.901-0.119-1.281-0.327l0.014 0.007c-0.343-0.185-0.671-0.513-1.325-1.168z"></path>
</symbol>
<symbol id="icon-benefit-hourglass" viewBox="0 0 32 32">
<path fill="none" stroke="currentColor" style="stroke: var(--color1, currentColor)" stroke-linejoin="round" stroke-linecap="round" stroke-miterlimit="4" stroke-width="2.6667" d="M24.217 2.667h-16.435c-0.616 0-1.116 0.5-1.116 1.116v0c0 0 0 0 0 0 0 3.7 1.5 7.050 3.924 9.474l1.627 1.627c0.16 0.16 0.241 0.241 0.299 0.32 0.165 0.219 0.264 0.496 0.264 0.797s-0.099 0.577-0.267 0.8l0.002-0.003c-0.095 0.116-0.193 0.221-0.297 0.318l-0.002 0.002-1.627 1.625c-2.424 2.425-3.924 5.775-3.924 9.474 0 0 0 0 0 0v-0c0 0.616 0.5 1.116 1.116 1.116h16.435c0.616 0 1.116-0.5 1.116-1.116v0c0-0 0-0 0-0 0-3.7-1.5-7.050-3.924-9.474l-1.627-1.627c-0.16-0.16-0.241-0.241-0.299-0.32-0.165-0.219-0.264-0.496-0.264-0.797s0.099-0.577 0.267-0.8l-0.002 0.003c0.057-0.077 0.137-0.157 0.299-0.32l1.627-1.625c2.424-2.425 3.924-5.775 3.924-9.474 0-0 0-0 0-0v0c0-0.616-0.5-1.116-1.116-1.116v0z"></path>
</symbol>
<symbol id="icon-benefit-message" viewBox="0 0 32 32">
<path fill="none" stroke="currentColor" style="stroke: var(--color1, currentColor)" stroke-linejoin="round" stroke-linecap="round" stroke-miterlimit="4" stroke-width="2.6667" d="M8.125 14.972c-0.080-0.49-0.125-1.056-0.125-1.631 0-0.003 0-0.005 0-0.008v0c0-5.891 4.807-10.667 10.737-10.667 5.929 0 10.736 4.776 10.736 10.667 0 1.331-0.245 2.605-0.693 3.78-0.093 0.243-0.14 0.365-0.16 0.46-0.019 0.077-0.031 0.166-0.032 0.258v0.001c-0.003 0.097 0.011 0.204 0.037 0.419l0.537 4.36c0.057 0.473 0.087 0.709 0.008 0.88-0.070 0.151-0.19 0.269-0.338 0.334l-0.004 0.002c-0.173 0.073-0.408 0.040-0.88-0.029l-4.245-0.623c-0.223-0.032-0.333-0.049-0.435-0.048-0.003-0-0.006-0-0.009-0-0.091 0-0.18 0.010-0.266 0.030l0.008-0.002c-0.099 0.021-0.225 0.068-0.477 0.163-1.128 0.432-2.433 0.683-3.796 0.683-0.575 0-1.14-0.045-1.692-0.13l0.061 0.008M10.176 29.333c3.953 0 7.157-3.283 7.157-7.333s-3.204-7.333-7.157-7.333c-3.953 0-7.159 3.283-7.159 7.333 0 0.813 0.129 1.597 0.369 2.329 0.1 0.309 0.151 0.464 0.168 0.569 0.017 0.111 0.020 0.173 0.013 0.284-0.007 0.107-0.033 0.227-0.087 0.468l-0.815 3.683 3.993-0.545c0.217-0.029 0.327-0.045 0.421-0.044 0.101 0 0.153 0.007 0.253 0.027 0.093 0.017 0.231 0.067 0.508 0.164 0.693 0.253 1.493 0.399 2.328 0.399 0.002 0 0.004 0 0.006 0h-0z"></path>
</symbol>
<symbol id="icon-menu-close" viewBox="0 0 32 32">
<path fill="none" stroke="currentColor" style="stroke: var(--color1, currentColor)" stroke-linejoin="round" stroke-linecap="round" stroke-miterlimit="4" stroke-width="2.2857" d="M24 8l-16 16M8 8l16 16"></path>
</symbol>
<symbol id="icon-menu-open" viewBox="0 0 32 32">
<path fill="none" stroke="currentColor" style="stroke: var(--color1, currentColor)" stroke-linejoin="round" stroke-linecap="round" stroke-miterlimit="4" stroke-width="2.2857" d="M4 11.334h24M4 20.666h24"></path>
</symbol>
<symbol id="icon-facebook" viewBox="0 0 32 32">
<path d="M19 6h5v-6h-5c-3.86 0-7 3.14-7 7v3h-4v6h4v16h6v-16h5l1-6h-6v-3c0-0.542 0.458-1 1-1z"></path>
</symbol>
<symbol id="icon-youtube" viewBox="0 0 32 32">
<path d="M31.681 9.6c0 0-0.313-2.206-1.275-3.175-1.219-1.275-2.581-1.281-3.206-1.356-4.475-0.325-11.194-0.325-11.194-0.325h-0.012c0 0-6.719 0-11.194 0.325-0.625 0.075-1.987 0.081-3.206 1.356-0.963 0.969-1.269 3.175-1.269 3.175s-0.319 2.588-0.319 5.181v2.425c0 2.587 0.319 5.181 0.319 5.181s0.313 2.206 1.269 3.175c1.219 1.275 2.819 1.231 3.531 1.369 2.563 0.244 10.881 0.319 10.881 0.319s6.725-0.012 11.2-0.331c0.625-0.075 1.988-0.081 3.206-1.356 0.962-0.969 1.275-3.175 1.275-3.175s0.319-2.587 0.319-5.181v-2.425c-0.006-2.588-0.325-5.181-0.325-5.181zM12.694 20.15v-8.994l8.644 4.513-8.644 4.481z"></path>
</symbol>
<symbol id="icon-github" viewBox="0 0 32 32">
<path d="M16 0.395c-8.836 0-16 7.163-16 16 0 7.069 4.585 13.067 10.942 15.182 0.8 0.148 1.094-0.347 1.094-0.77 0-0.381-0.015-1.642-0.022-2.979-4.452 0.968-5.391-1.888-5.391-1.888-0.728-1.849-1.776-2.341-1.776-2.341-1.452-0.993 0.11-0.973 0.11-0.973 1.606 0.113 2.452 1.649 2.452 1.649 1.427 2.446 3.743 1.739 4.656 1.33 0.143-1.034 0.558-1.74 1.016-2.14-3.554-0.404-7.29-1.777-7.29-7.907 0-1.747 0.625-3.174 1.649-4.295-0.166-0.403-0.714-2.030 0.155-4.234 0 0 1.344-0.43 4.401 1.64 1.276-0.355 2.645-0.532 4.005-0.539 1.359 0.006 2.729 0.184 4.008 0.539 3.054-2.070 4.395-1.64 4.395-1.64 0.871 2.204 0.323 3.831 0.157 4.234 1.026 1.12 1.647 2.548 1.647 4.295 0 6.145-3.743 7.498-7.306 7.895 0.574 0.497 1.085 1.47 1.085 2.963 0 2.141-0.019 3.864-0.019 4.391 0 0.426 0.288 0.925 1.099 0.768 6.354-2.118 10.933-8.113 10.933-15.18 0-8.837-7.164-16-16-16z"></path>
</symbol>
<symbol id="icon-linkedin2" viewBox="0 0 32 32">
<path d="M12 12h5.535v2.837h0.079c0.77-1.381 2.655-2.837 5.464-2.837 5.842 0 6.922 3.637 6.922 8.367v9.633h-5.769v-8.54c0-2.037-0.042-4.657-3.001-4.657-3.005 0-3.463 2.218-3.463 4.509v8.688h-5.767v-18z"></path>
<path d="M2 12h6v18h-6v-18z"></path>
<path d="M8 7c0 1.657-1.343 3-3 3s-3-1.343-3-3c0-1.657 1.343-3 3-3s3 1.343 3 3z"></path>
</symbol>
</defs>
</svg>
