<svg width="24" height="24" viewBox="0 0 24 24" fill="none" xmlns="http://www.w3.org/2000/svg">
<path d="M12.7778 14.9999L9 11.2222" stroke="#FAFAFA" stroke-width="2" stroke-linecap="round" stroke-linejoin="round"/>
<path d="M2 21.9999C4 21.9999 6.60801 22.3416 7.97485 20.9748C9.34168 19.608 9.34168 17.3919 7.97485 16.0251C6.60801 14.6582 4.39194 14.6582 3.0251 16.0251C1.65827 17.3919 3.0251 19.9999 2 21.9999Z" stroke="#FAFAFA" stroke-width="2" stroke-linecap="round" stroke-linejoin="round"/>
<path d="M7.99995 15.9999C7.50853 15.5085 7.26283 15.2628 7.12391 15.0055C6.79079 14.3885 6.80514 13.6421 7.16173 13.0383C7.31043 12.7865 7.5654 12.5504 8.07534 12.0783L17.9434 2.94117C18.8126 2.13639 20.1624 2.16234 20.9999 2.99993C21.8375 3.83752 21.8635 5.1873 21.0587 6.05647L11.9216 15.9245C11.4494 16.4345 11.2134 16.6894 10.9616 16.8381C10.3578 17.1947 9.6114 17.2091 8.99438 16.876C8.73707 16.737 8.49136 16.4913 7.99995 15.9999Z" stroke="#FAFAFA" stroke-width="2" stroke-linecap="round" stroke-linejoin="round"/>
</svg>
